<svg viewBox="0 0 1215 739" fill="none" xmlns="http://www.w3.org/2000/svg">
<path d="M0.318974 1.73331C0.0523073 2.66664 -0.081026 16 0.0523073 31.3333L0.452307 59.3333L65.3856 59.7333L130.452 60V339.067V618L132.452 629.2C134.719 642.4 136.052 646.8 141.386 659.333C150.186 679.733 167.252 700.8 185.786 714C196.052 721.333 213.652 729.867 225.652 733.333C230.719 734.8 240.986 736.533 248.586 737.467L262.319 738.933L274.719 737.333C281.519 736.533 291.652 734.667 297.119 733.2C308.319 730.133 323.786 722.8 335.386 715.067C345.519 708.533 361.786 692.267 368.986 681.467C376.052 671.067 383.786 654.667 387.919 641.333L390.986 631.333L391.786 421.333L392.452 211.333L395.386 202.667C396.986 197.867 400.186 191.067 402.452 187.6C407.786 179.2 418.052 169.333 426.186 164.933C444.719 154.933 469.386 154.933 488.319 165.067C492.052 167.067 498.852 172.4 503.386 176.933L511.652 185.2L516.719 195.6L521.786 206L522.586 345.333L523.252 484.667L526.052 496.667C533.119 527.733 548.586 553.467 571.119 571.467C582.986 581.067 597.919 589.333 610.586 593.333C621.786 596.933 642.052 600 654.186 600C659.386 600 669.652 599.067 676.852 598C704.852 593.867 726.986 582.533 746.986 562.133L757.786 551.2L764.186 540.4C772.052 527.333 777.119 515.067 781.252 499.333L784.319 487.333L784.719 296.933L785.252 106.667H751.119H717.119V295.6V484.667L715.652 490.667C714.986 493.867 712.452 500.4 710.319 505.067L706.186 513.6L698.052 521.867L689.786 530.267L681.119 534.533L672.319 538.8L663.119 540.133L653.919 541.6L644.719 540.133L635.652 538.667L626.719 534.267L617.786 530L609.519 521.867L601.386 513.6L596.586 503.733L591.786 493.867L590.452 484.533L589.119 475.333V345.733V216.133L586.586 202.8L584.052 189.6L578.852 177.067C576.052 170.267 570.719 160.133 567.119 154.8C559.252 143.2 547.386 130.667 536.719 122.8C528.052 116.533 511.786 108.133 501.786 104.8C476.186 96.5333 436.452 96.6666 411.386 105.333C401.786 108.667 389.119 114.933 381.119 120.4C371.252 127.067 355.919 142.667 348.852 153.2C336.852 170.8 329.519 190.4 326.586 212.4L325.119 222.8V420.667V618.4L322.586 626.533C319.386 637.067 313.519 646 304.452 654.533L297.119 661.467L288.852 665.333C284.186 667.467 276.052 670 270.719 670.933L261.119 672.533L251.386 670.933L241.786 669.333L233.119 665.067L224.452 660.933L216.319 652.667C207.652 644.133 202.719 635.867 199.252 624.133L197.119 616.8V338.4V60H262.452H327.786V30V-2.22623e-05H164.452H0.985641L0.318974 1.73331Z" fill="#11CB73"/>
<path d="M845.119 349.333V592H879.119H913.119V512.8V433.467L993.519 433.067L1073.79 432.533L1086.45 429.733C1107.25 424.933 1123.65 418.667 1139.79 408.933C1148.72 403.6 1165.92 389.6 1173.65 381.333C1195.12 358.133 1208.85 329.467 1213.25 298.933L1214.72 287.867L1214.05 263.6L1213.39 239.333L1209.79 225.333L1206.19 211.333L1199.12 196.533C1190.85 179.333 1179.79 164.133 1166.72 151.733C1154.59 140.4 1143.12 132.267 1128.45 124.933C1114.59 118 1104.99 114.533 1088.32 110.4L1076.45 107.467L960.852 107.067L845.119 106.533V349.333ZM1066.05 168.533C1078.45 171.2 1091.52 176 1100.72 181.467C1104.99 184 1113.65 191.067 1119.92 197.333L1131.39 208.667L1136.99 220.267L1142.59 231.867L1145.25 244.267L1147.79 256.667V270V283.333L1145.25 295.733L1142.59 308.133L1137.92 317.733C1128.32 337.067 1113.39 351.467 1092.45 361.467C1086.59 364.267 1076.99 368 1071.12 369.6L1060.45 372.533L986.852 373.067L913.119 373.467V270V166.667H984.986H1056.99L1066.05 168.533Z" fill="#11CB73"/>
</svg>
